<svg width="25" height="24" viewBox="0 0 25 24" fill="none" xmlns="http://www.w3.org/2000/svg">
<path fill-rule="evenodd" clip-rule="evenodd" d="M13.4372 2H10.8301V22H13.4372C17.8712 22 21.2586 17.3921 21.2586 12C21.2586 6.60791 17.8712 2 13.4372 2Z" fill="#E6B900"/>
<path fill-rule="evenodd" clip-rule="evenodd" d="M11.0802 2C6.64618 2 3.25879 6.60791 3.25879 12C3.25879 17.3921 6.64618 22 11.0802 22C15.5142 22 18.9016 17.3921 18.9016 12C18.9016 6.60791 15.5142 2 11.0802 2Z" fill="#FFCF08"/>
<path d="M10.8856 7.22511C10.9556 7.04866 11.203 7.04866 11.2729 7.22511L12.2866 9.78304C12.3139 9.85203 12.3753 9.90137 12.448 9.91285L14.8814 10.2968C15.0427 10.3223 15.1138 10.5165 15.0077 10.6417L13.2266 12.7422C13.1875 12.7884 13.17 12.8494 13.1787 12.9096L13.5932 15.7677C13.6188 15.9439 13.4295 16.0706 13.2786 15.9782L11.1875 14.6974C11.121 14.6567 11.0376 14.6567 10.9711 14.6974L8.87994 15.9782C8.7291 16.0706 8.53982 15.9439 8.56538 15.7677L8.97986 12.9096C8.98858 12.8494 8.97111 12.7884 8.93194 12.7422L7.15092 10.6417C7.04475 10.5165 7.11584 10.3223 7.27716 10.2968L9.71053 9.91285C9.78327 9.90137 9.84463 9.85203 9.87197 9.78304L10.8856 7.22511Z" fill="#CCA500"/>
</svg>
