<svg width="20" height="20" viewBox="0 0 20 20" fill="none" xmlns="http://www.w3.org/2000/svg">
<g clip-path="url(#clip0_107_200)">
<path fill-rule="evenodd" clip-rule="evenodd" d="M10 20C15.5229 20 20 15.5229 20 10C20 4.47715 15.5229 0 10 0C4.47715 0 0 4.47715 0 10C0 15.5229 4.47715 20 10 20ZM7.75889 5.99111C7.27072 5.50296 6.47928 5.50296 5.99111 5.99111C5.50296 6.47928 5.50296 7.27072 5.99111 7.75889L8.23224 10L5.99111 12.2411C5.50296 12.7292 5.50296 13.5208 5.99111 14.0089C6.47928 14.497 7.27072 14.497 7.75889 14.0089L10 11.7678L12.2411 14.0089C12.7292 14.497 13.5208 14.497 14.0089 14.0089C14.497 13.5208 14.497 12.7292 14.0089 12.2411L11.7678 10L14.0089 7.75889C14.497 7.27072 14.497 6.47928 14.0089 5.99111C13.5208 5.50296 12.7292 5.50296 12.2411 5.99111L10 8.23224L7.75889 5.99111Z" fill="#FFCF08"/>
</g>
<defs>
<clipPath id="clip0_107_200">
<rect width="20" height="20" fill="white"/>
</clipPath>
</defs>
</svg>
