<svg preserveAspectRatio="none" width="591" height="260" viewBox="0 0 591 260" fill="none" xmlns="http://www.w3.org/2000/svg">
<circle cx="209.5" cy="178.5" r="79.5" fill="#A2B1FF"/>
<ellipse cx="107.5" cy="197" rx="65.5" ry="48" fill="#A2B1FF"/>
<circle cx="60.5" cy="121.5" r="60.5" fill="#A2B1FF"/>
<ellipse cx="189.5" cy="75" rx="70.5" ry="75" fill="#A2B1FF"/>
<ellipse cx="349.5" cy="107.5" rx="63.5" ry="41.5" fill="#D9D9D9"/>
<ellipse cx="329" cy="85" rx="73" ry="81" fill="#A2B1FF"/>
<ellipse cx="358" cy="193.5" rx="55" ry="66.5" fill="#A2B1FF"/>
<ellipse cx="414" cy="124.5" rx="69" ry="57.5" fill="#A2B1FF"/>
<ellipse cx="288.5" cy="190.5" rx="61.5" ry="41.5" fill="#A2B1FF"/>
<ellipse cx="417" cy="62" rx="50" ry="51" fill="#A2B1FF"/>
<ellipse cx="444.5" cy="210" rx="62.5" ry="44" fill="#A2B1FF"/>
<ellipse cx="475.5" cy="84.5" rx="58.5" ry="52.5" fill="#A2B1FF"/>
<ellipse cx="496.5" cy="172.5" rx="83.5" ry="59.5" fill="#A2B1FF"/>
<ellipse cx="524.5" cy="105.5" rx="66.5" ry="67.5" fill="#A2B1FF"/>
<ellipse cx="260" cy="78" rx="58" ry="50" fill="#A2B1FF"/>
<ellipse cx="125" cy="102" rx="48" ry="64" fill="#A2B1FF"/>
</svg>
