<svg width="520" height="219" viewBox="0 0 520 219" fill="none" xmlns="http://www.w3.org/2000/svg">
<circle cx="170.5" cy="139.5" r="79.5" fill="#A2B1FF"/>
<ellipse cx="81.5" cy="162" rx="65.5" ry="48" fill="#A2B1FF"/>
<circle cx="60.5" cy="102.5" r="60.5" fill="#A2B1FF"/>
<ellipse cx="139.5" cy="77" rx="70.5" ry="75" fill="#A2B1FF"/>
<ellipse cx="310.5" cy="82.5" rx="63.5" ry="41.5" fill="#D9D9D9"/>
<ellipse cx="294" cy="81" rx="73" ry="81" fill="#A2B1FF"/>
<ellipse cx="306" cy="143.5" rx="55" ry="66.5" fill="#A2B1FF"/>
<ellipse cx="375" cy="99.5" rx="69" ry="57.5" fill="#A2B1FF"/>
<ellipse cx="249.5" cy="165.5" rx="61.5" ry="41.5" fill="#A2B1FF"/>
<ellipse cx="375" cy="52" rx="50" ry="51" fill="#A2B1FF"/>
<ellipse cx="395.5" cy="166" rx="62.5" ry="44" fill="#A2B1FF"/>
<ellipse cx="436.5" cy="59.5" rx="58.5" ry="52.5" fill="#A2B1FF"/>
<ellipse cx="436.5" cy="126.5" rx="83.5" ry="59.5" fill="#A2B1FF"/>
<ellipse cx="221" cy="53" rx="58" ry="50" fill="#A2B1FF"/>
<ellipse cx="86" cy="77" rx="48" ry="64" fill="#A2B1FF"/>
</svg>
