<svg width="103" height="59" viewBox="0 0 363 129" fill="none" xmlns="http://www.w3.org/2000/svg">
<path fill-rule="evenodd" clip-rule="evenodd" d="M13.3014 64.5C5.09865 57.6766 0 48.118 0 37.5369C0 16.8058 19.5718 0 43.7149 0C61.9726 0 77.6161 9.61093 84.158 23.2623H278.842C285.384 9.61093 301.027 0 319.285 0C343.428 0 363 16.8058 363 37.5369C363 48.118 357.901 57.6766 349.699 64.5C357.901 71.3234 363 80.882 363 91.4631C363 112.194 343.428 129 319.285 129C302.978 129 288.756 121.333 281.242 109.967H81.758C74.2443 121.333 60.0224 129 43.7149 129C19.5718 129 0 112.194 0 91.4631C0 80.882 5.09865 71.3234 13.3014 64.5Z" fill="#FFCF08"/>
</svg>
